# xmcd
#
# Track frame offsets: 
#        150
#        18570
#        41335
#        59196
#        78486
#        99504
#        126464
#        145001
#        174330
#        195563
#        221024
#        238697
#        261936
#
# Disc length: 3739 seconds
#
# Revision: 0
# Processed by: cddbd v1.5.2PL0 Copyright (c) Steve Scherf et al.
# Submitted via: ExactAudioCopy v1.3
#
DISCID=bd0e990d
DTITLE=Billy Price and Fred Chapellier - Night Work
DYEAR=2009
DGENRE=Blues
TTITLE0=Smart Money
TTITLE1=My Love Comes Tumbling Down
TTITLE2=Night Work
TTITLE3=Don't Let My Baby Ride
TTITLE4=When The Lights Came On
TTITLE5=Love And Happiness
TTITLE6=Who You're Workin' For
TTITLE7=Under The Influence
TTITLE8=The Wrong Woman
TTITLE9=O.V. Wright
TTITLE10=All the Love In The World
TTITLE11=Champagne Blues And Pittsburgh Soul
TTITLE12=Skunk Shuffle
EXTD=
EXTT0=
EXTT1=
EXTT2=
EXTT3=
EXTT4=
EXTT5=
EXTT6=
EXTT7=
EXTT8=
EXTT9=
EXTT10=
EXTT11=
EXTT12=
PLAYORDER=
